# xmcd
#
# Track frame offsets: 
#        150
#        7506
#        24149
#        45751
#        60441
#        77842
#        101303
#        122404
#        147964
#        171879
#        187989
#        205900
#        225634
#
# Disc length: 3392 seconds
#
# Revision: 5
# Processed by: cddbd v1.5.2PL0 Copyright (c) Steve Scherf et al.
# Submitted via: ExactAudioCopy v1.3
#
DISCID=880d3e0d
DTITLE=Bernard Allison Group - The Otherside
DYEAR=2010
DGENRE=Blues
TTITLE0=Send It In 
TTITLE1=I Wouldn't Treat a Dog (The Way You Treated Me)
TTITLE2=Tired of Tryin
TTITLE3=As Simple as That 
TTITLE4=The Otherside 
TTITLE5=Slide Master 
TTITLE6=Allison Way 
TTITLE7=Still Rainin
TTITLE8=Leavin the Bayou 
TTITLE9=Life Goes On 
TTITLE10=Fire
TTITLE11=Clear Vision 
TTITLE12=Let's Try It Again 
EXTD=
EXTT0=
EXTT1=
EXTT2=
EXTT3=
EXTT4=
EXTT5=
EXTT6=
EXTT7=
EXTT8=
EXTT9=
EXTT10=
EXTT11=
EXTT12=
PLAYORDER=
